# xmcd
#
# Track frame offsets:
#	150
#	13193
#	40060
#	53310
#	63363
#	82465
#	94483
#	109088
#	126383
#	141368
#	152790
#	167773
#	184018
#	199428
#	212800
#	224970
#	243985
#
# Disc length: 3691 seconds
#
# Revision: 1
# Processed by: cddbd v1.5PL3 Copyright (c) Steve Scherf et al.
# Submitted via: CDex 1.50Beta5
#
DISCID=0a0e6911
DTITLE=Various Artist - Golden Jazz Age 4 Jazz Vocal
DYEAR=1900
DGENRE=Jazz -> General Jazz
TTITLE0=Take The "A" Train
TTITLE1=Cheek To Cheek
TTITLE2=I Left My Heart In San Francisco
TTITLE3=Get Me To The Church On Time
TTITLE4=Please Be Kind
TTITLE5=Strangers In The Night
TTITLE6=Mood Indigo
TTITLE7=These Foolish Things
TTITLE8=It's Only A Paper Moon
TTITLE9=Fancy Meeting You Here
TTITLE10=Stardust
TTITLE11=Midnight Sun
TTITLE12=Lover Man
TTITLE13=Just Squeez Me
TTITLE14=Come Sunday
TTITLE15=Top Hat, White Tie And Tails
TTITLE16=Stompin' At The Savoy
EXTD=
EXTT0=
EXTT1=
EXTT2=
EXTT3=
EXTT4=
EXTT5=
EXTT6=
EXTT7=
EXTT8=
EXTT9=
EXTT10=
EXTT11=
EXTT12=
EXTT13=
EXTT14=
EXTT15=
EXTT16=
PLAYORDER=
